<?xml version="1.0" encoding="UTF-8"?>
<svg id="Layer_1" data-name="Layer 1" xmlns="http://www.w3.org/2000/svg" viewBox="0 0 381.09 577.16">
  <defs>
    <style>
      .cls-1 {
        fill: #8bc53f;
      }
    </style>
  </defs>
  <path class="cls-1" d="m190.35,25.55c-89.35.06-161.96,118.11-161.85,263.14.1,145.03,72.88,262.97,162.23,262.91,89.35-.06,161.96-118.11,161.85-263.14-.1-145.03-72.88-262.97-162.23-262.91Zm157.11,262.91c.1,142.21-70.21,257.96-156.74,258.02-86.53.06-157.01-115.58-157.11-257.79-.1-142.21,70.21-257.96,156.74-258.02,86.53-.06,157.01,115.58,157.11,257.8Z"/>
  <path class="cls-1" d="m190.36,36.36c-83.39.06-151.15,113.25-151.05,252.33.1,139.07,68.03,252.17,151.42,252.11,83.39-.06,151.15-113.25,151.05-252.32-.1-139.07-68.03-252.17-151.42-252.11Zm149.5,252.11c.1,138.01-66.8,250.35-149.13,250.4-82.33.06-149.4-112.17-149.5-250.19-.1-138.01,66.8-250.35,149.13-250.41,82.33-.06,149.4,112.18,149.49,250.19Z"/>
  <path class="cls-1" d="m167.35,113.97c1.43.6,2.96.9,4.59.9,1.63,0,3.16-.3,4.59-.91,1.43-.6,2.67-1.43,3.74-2.49,1.06-1.05,1.9-2.28,2.51-3.69.61-1.41.92-2.91.91-4.5,0-1.59-.31-3.09-.92-4.5-.61-1.41-1.45-2.63-2.52-3.67-1.07-1.04-2.31-1.87-3.74-2.48-1.43-.61-2.96-.92-4.6-.92-1.63,0-3.16.31-4.59.92-1.43.61-2.67,1.44-3.74,2.48-1.06,1.05-1.9,2.27-2.51,3.68-.61,1.41-.92,2.91-.91,4.5,0,1.59.31,3.09.92,4.5.61,1.41,1.45,2.64,2.52,3.69,1.06,1.05,2.31,1.88,3.74,2.48Zm-4.57-9.6c-.28-1.29-.33-2.54-.15-3.76.18-1.21.58-2.33,1.21-3.35.62-1.02,1.46-1.86,2.51-2.53,1.05-.67,2.19-1.07,3.4-1.19,1.21-.13,2.42-.02,3.61.32,1.19.34,2.33.91,3.4,1.71,1.07.79,2,1.78,2.77,2.96.78,1.18,1.3,2.42,1.58,3.7.28,1.29.33,2.54.15,3.76-.18,1.21-.58,2.33-1.21,3.35-.62,1.02-1.46,1.87-2.51,2.53-1.05.67-2.19,1.07-3.4,1.2-1.21.13-2.42.02-3.61-.32-1.19-.34-2.33-.91-3.4-1.71-1.07-.79-2-1.78-2.77-2.96-.77-1.18-1.3-2.42-1.58-3.71Z"/>
  <polygon class="cls-1" points="186.9 114.57 188.48 114.57 188.47 96.81 195.76 106.41 196.34 107.15 196.34 107.12 201.99 114.56 203.5 114.56 203.49 91.99 201.91 91.99 201.92 109.76 194.63 100.15 194.05 99.41 194.05 99.45 188.4 92 185.44 92 185.44 93.55 186.89 93.55 186.9 114.57"/>
  <path class="cls-1" d="m207.41,114.55h13.25s-1.16-2.01-1.16-2.01c-1.31.17-2.76.3-4.33.39-1.58.09-3.24.13-4.98.13v-9.77s6.89,0,6.89,0l.87-1.55h-7.77s0-8.25,0-8.25c1.74,0,3.4.04,4.98.12,1.58.09,3.02.21,4.34.38l1.16-1.97h-14.7s0,1.49,0,1.49l1.45-.07.02,21.08Z"/>
  <path class="cls-1" d="m162.86,483.54c-1.58.09-3.24.13-4.98.13h-1.94s.13-.23.13-.23l11.56-19.57v-1.26s-13.38,0-13.38,0h.03s-.45,0-.45,0l1.16,2c.64-.09,1.28-.16,1.9-.23.62-.07,1.26-.12,1.9-.16.64-.04,1.33-.08,2.05-.1.72-.02,1.52-.03,2.4-.03h1.13s-11.75,19.83-11.75,19.83v1.22s15.73-.01,15.73-.01l-1.16-2c-1.31.17-2.76.3-4.33.39Z"/>
  <path class="cls-1" d="m180.03,464.25c1.58.09,3.02.21,4.34.38l1.16-1.97h-14.7s0,1.5,0,1.5l1.45-.07.02,21.08h13.25s-1.16-2.01-1.16-2.01c-1.31.17-2.76.3-4.34.39-1.58.09-3.24.13-4.98.13v-9.77s6.89,0,6.89,0l.87-1.55h-7.77s0-8.25,0-8.25c1.74,0,3.4.04,4.98.12Z"/>
  <path class="cls-1" d="m201.6,465.37c-.47-.85-1.07-1.54-1.83-2.06-.75-.53-1.59-.79-2.51-.79l.06.06h-9.35s0,1.49,0,1.49h1.45s.02,21.08.02,21.08h2.77s0-7.9,0-7.9c.9,0,1.74-.07,2.51-.2l5.71,8.06h3.68s-6.29-8.57-6.29-8.57l-.23-.26c1.33-.54,2.38-1.25,3.14-2.15s1.28-1.85,1.56-2.87c.28-1.02.35-2.05.21-3.08-.14-1.03-.44-1.97-.9-2.82Zm-1.64,4.45c-.03,1-.32,1.93-.87,2.8-.55.87-1.39,1.59-2.51,2.16-1.13.57-2.61.86-4.43.86v-11.64s3.6,0,3.6,0c.84,0,1.58.28,2.24.85.66.57,1.16,1.29,1.5,2.16.35.87.5,1.81.47,2.81Z"/>
  <path class="cls-1" d="m221.55,463.2c-1.43-.61-2.96-.92-4.59-.92-1.63,0-3.17.31-4.59.92-1.43.61-2.67,1.44-3.74,2.48-1.06,1.05-1.9,2.27-2.51,3.68-.61,1.41-.92,2.91-.92,4.5,0,1.59.31,3.09.92,4.5.61,1.41,1.45,2.64,2.52,3.69,1.07,1.05,2.31,1.88,3.74,2.48,1.43.6,2.96.9,4.6.9,1.63,0,3.16-.3,4.59-.9,1.43-.6,2.67-1.43,3.74-2.49,1.06-1.05,1.9-2.28,2.51-3.69.61-1.41.91-2.91.91-4.5,0-1.59-.31-3.09-.92-4.5-.62-1.41-1.46-2.63-2.52-3.67-1.07-1.04-2.31-1.87-3.74-2.48Zm4.6,9.59c.28,1.29.33,2.54.15,3.76-.18,1.21-.59,2.33-1.21,3.35-.62,1.02-1.46,1.87-2.51,2.53-1.05.67-2.18,1.07-3.4,1.2-1.21.13-2.42.02-3.61-.32-1.19-.34-2.33-.91-3.4-1.71s-2-1.78-2.77-2.96-1.3-2.42-1.58-3.71c-.28-1.29-.33-2.54-.15-3.76.18-1.21.58-2.33,1.2-3.35.62-1.02,1.46-1.86,2.51-2.53,1.05-.67,2.18-1.07,3.4-1.19,1.21-.13,2.42-.02,3.61.32,1.19.34,2.33.91,3.4,1.71,1.07.79,2,1.78,2.77,2.96.78,1.18,1.3,2.42,1.58,3.7Z"/>
  <path class="cls-1" d="m229.07,184.89c-12.87,0-24.66,3.31-34.31,8.82-9.14-5.72-20.71-8.78-33.04-8.77-33.01.02-59.05,21.47-59.61,47.24-.56,23.74,15.08,38.21,34.78,49.78-24.02,10.73-52.39,29.86-52.36,60.55.02,32.14,32.18,49.78,73,49.75,11.4,0,22.02-1.97,31.46-5.4,10.55,3.54,22.77,5.36,35.89,5.35,40.54-.03,71.79-24.08,71.77-55.07-.02-31.27-31.88-45.73-61.43-60.47,17.37-6.67,46.6-21.17,46.58-48.1-.02-27.51-24.35-43.7-52.73-43.68Zm-111.05,37.72c1.43-24.61,24.3-34.76,40.22-34.77,8.6,0,19.74,3.66,27.73,12.01-10.02,8.49-16.24,19.87-16.51,32.28-.32,13.44,4.56,23.91,12.43,32.56-4.58,4.45-10.1,8.07-16.34,10.88-25.49-13.01-48.95-26.89-47.52-52.95Zm78.18,2.84c.39,8.23-.74,15.53-3.08,21.95-5.29-6.96-8.27-15.03-7.74-24.84.38-6.58,2.33-12.09,5.23-16.69,3.2,5.24,5.33,11.69,5.59,19.57Zm8.04,56.46c-4.34,1.94-8.83,4.17-13.26,6.67-7.45-4.14-15.36-7.99-23.12-11.86,5.22-2.01,11.52-4.74,17.77-8.28,5.37,5.02,11.74,9.43,18.61,13.47Zm-43.83,107.16c-27.51.02-57.34-13.86-57.37-56.71-.02-24.03,14.74-40.26,35.29-49.54,11.12,6.47,23.39,12.13,34.73,18.17-12.18,10.52-21.2,24.16-21.19,41.47.01,20.13,12.64,34.57,32.1,42.55-9.63,3.26-19.03,4.06-23.56,4.06Zm52.67-37.97c-.88,14.68-9.09,23.79-18.93,29.39-13.74-8.32-23.74-23.39-23.76-48.18,0-11,3.11-20.35,8.43-28.16,19.98,11.31,35.65,24.56,34.25,46.95Zm67.36-.05c-2,33.3-41.67,37.96-52.67,37.97-10,0-20.31-1.84-29.38-6.23,18.85-9.8,30.91-26.36,30.89-45.6-.02-22.24-16.13-35.97-36.07-47.35,3.83-2.68,8-5.05,12.47-7.07,33.31,19.38,77.04,31.51,74.75,68.28Zm-16.88-125.65c1.18,24.9-11.26,41.41-30.66,50.11-11.45-5.84-22.47-11.87-31.02-19.09,7.33-7.29,12.57-16.42,12.57-27.8,0-13.59-5.97-24.4-15.4-31.88,8.06-6.15,18.24-8.95,26.56-8.95,14.77-.01,37.07,10.69,37.96,37.61Z"/>
</svg>